<?xml version="1.0" standalone="no"?>
<!DOCTYPE svg PUBLIC "-//W3C//DTD SVG 20010904//EN"
 "http://www.w3.org/TR/2001/REC-SVG-20010904/DTD/svg10.dtd">
<svg version="1.0" xmlns="http://www.w3.org/2000/svg"
 width="512.000000pt" height="512.000000pt" viewBox="0 0 512.000000 512.000000"
 preserveAspectRatio="xMidYMid meet">
<metadata>
Created by potrace 1.11, written by Peter Selinger 2001-2013
</metadata>
<g transform="translate(0.000000,512.000000) scale(0.100000,-0.100000)"
fill="#000000" stroke="none">
<path d="M2080 3811 c-84 -30 -793 -395 -1180 -607 -234 -128 -319 -228 -273
-322 27 -56 71 -74 163 -69 64 4 108 17 290 87 584 223 858 322 895 324 45 1
93 -27 112 -66 63 -126 223 -501 217 -507 -11 -10 -446 -273 -824 -500 -157
-94 -305 -183 -330 -198 l-45 -28 65 -6 c36 -3 50 -6 30 -7 -53 -3 -68 -16
-39 -35 47 -31 99 -47 187 -57 185 -21 393 17 982 179 474 129 588 155 778
171 64 6 121 15 129 21 18 16 16 70 -5 126 -11 27 -81 145 -157 263 -218 341
-438 689 -568 900 -65 107 -136 217 -156 243 -70 94 -167 125 -271 88z"/>
<path d="M3796 3494 c-80 -19 -169 -69 -237 -132 -318 -294 -190 -823 230
-946 70 -20 218 -21 296 -1 277 72 460 366 401 645 -46 219 -218 397 -424 439
-71 15 -194 12 -266 -5z"/>
<path d="M10 1883 c0 -3 17 -36 37 -72 143 -258 421 -514 693 -639 315 -144
616 -190 1075 -163 431 25 603 59 1080 215 454 147 541 162 970 160 436 -2
719 -23 1196 -89 l44 -7 -35 32 c-130 115 -491 314 -695 383 -264 88 -420 112
-690 104 -281 -8 -408 -30 -935 -163 -403 -102 -599 -146 -791 -176 -124 -19
-183 -22 -429 -22 -244 0 -305 3 -425 22 -169 26 -342 68 -490 117 -139 47
-405 175 -514 248 -87 59 -91 61 -91 50z"/>
</g>
</svg>
